<?xml version="1.0" encoding="utf-8"?>
<!-- Generator: Adobe Illustrator 19.0.1, SVG Export Plug-In . SVG Version: 6.00 Build 0)  -->
<svg version="1.1" id="Layer_1" xmlns="http://www.w3.org/2000/svg" xmlns:xlink="http://www.w3.org/1999/xlink" x="0px" y="0px"
	 viewBox="48 16.1 608.3 769.3" style="enable-background:new 48 16.1 608.3 769.3;" xml:space="preserve">
<style type="text/css">
	.st0{clip-path:url(#SVGID_2_);fill:#FED20D;}
	.st1{clip-path:url(#SVGID_4_);}
	.st2{fill:#F17A22;}
	.st3{fill:#FED20D;}
	.st4{fill:none;}
	.st5{enable-background:new    ;}
	.st6{fill:#FE7900;}
	.st7{fill:#FED20B;}
	.st8{fill:none;stroke:#454545;stroke-width:1.5;}
</style>
<g>
	<g id="Layer_1_1_">
		<g>
			<g>
				<g>
					<defs>
						<path id="SVGID_1_" d="M502.8,301.8c3.6-15.3,3.5-30.7,1.1-44.9l-5.3-17.8c-7-16.5-21.1-31.1-41.7-43.9l-13-8.2
							c-2.1-1.2-4.3-2.5-6.4-3.7c-2.2,0.1-5.2-2.8-7.7-3.9c-10.2-5.4-20-9.1-29.3-11.4l-15.8-2.6c-18.2-1.6-35.2,2-52,8.5l-20,8.9
							c-14.9,7.5-57.7,40.9-57.7,40.9c-6.8,6.6-27.1,30.2-40.4,56c-12.2,23.9-17.7,50.1-17.9,56.4c0,0,2.5,28.6,3.6,33.3
							c1,2.7,8.3,24.8,12.7,32.6l9.7,14.5c6,7.7,13.3,15.1,22.1,22.2l11,8.1c4.9,3.3,33.7,17.8,40.1,20.2l19.9,6.2
							c26.3,6.4,50.6,5.7,73.7,0.3c2.7-1,5.5-1.8,8.3-2.2c5-1.9,34.7-12.3,34.7-12.3c13.6-5.4,26.9-12.4,38.7-24.5
							c1.1-1.9,2.2-3.8,3.3-5.7c11-17.7-12.6-31.3-30.1-33.2c-14.9-1.6-26.3,5.9-39.8,11c-21.3,8-43.6,11.3-68.9,7.7
							c-37-5.3-71.6-28.7-79.8-60.8c-1-2.7-1.8-5.5-2.2-8.3c-2.9-16-2.5-32.8,7.2-52.1c1.6-4.5,5.8-11.7,8.9-15.4
							c20.1-29.6,47.8-42.5,74.4-49.6c26.7-7.1,57.4-8.4,89.8,7.9c1.3-0.6,3.4,1.8,5.1,2.4c0.9,0.5,1.8,1,2.6,1.5
							c1.3,1.1,4.4,1.8,4.6,3.2c8.9,3.9,8.8,10.3,11.3,15.9c0.9,2.2,1.5,4.5,1.9,6.9c6.8,20.7-5.5,46-23.7,61.4
							c-17.9,15.1-39.3,28.7-61.1,20.4c-1.5,0.1-5.5-2.2-6.2-3.6c-14.4-11-19.4-24.5-16-40.3c12.8,4.1,14.5,21,28,25.6
							c10.9,3.7,20.8-3.4,28.9-14.4c1.1-1.9,2.2-3.8,3.3-5.7c11.4-22.3,2.4-33-15.4-47.5c-2.8-1.6-5.6-3.2-8.4-4.8
							c-35.8-12.6-62.9-14.8-85.1,23.4c-1.9,3.4-3.9,6.7-5.8,10.1c-16.2,24.2-4.6,42.1,7.6,58.9c7.6,10.5,16.8,23.8,30.4,31.6
							c27.9,16,58.6,8.6,80.4,1.9c14-4.3,28.6-10.2,41.9-18.9l13.1-10c4.8-4.2,9.3-9,13.4-14.3c5.5-7.2,9.7-14.6,12.9-22.3
							L502.8,301.8z"/>
					</defs>
					<clipPath id="SVGID_2_">
						<use xlink:href="#SVGID_1_"  style="overflow:visible;"/>
					</clipPath>
					<rect x="190.5" y="160.6" class="st0" width="322.3" height="323"/>
				</g>
			</g>
		</g>
		<g>
			<g>
				<g>
					<defs>
						<path id="SVGID_3_" d="M502.8,301.8c3.6-15.3,3.5-30.7,1.1-44.9l-5.3-17.8c-7-16.5-21.1-31.1-41.7-43.9l-13-8.2
							c-2.1-1.2-4.3-2.5-6.4-3.7c-2.2,0.1-5.2-2.8-7.7-3.9c-10.2-5.4-20-9.1-29.3-11.4l-15.8-2.6c-18.2-1.6-35.2,2-52,8.5l-20,8.9
							c-14.9,7.5-57.7,40.9-57.7,40.9c-6.8,6.6-27.1,30.2-40.4,56c-12.2,23.9-17.7,50.1-17.9,56.4c0,0,2.5,28.6,3.6,33.3
							c1,2.7,8.3,24.8,12.7,32.6l9.7,14.5c6,7.7,13.3,15.1,22.1,22.2l11,8.1c4.9,3.3,33.7,17.8,40.1,20.2l19.9,6.2
							c26.3,6.4,50.6,5.7,73.7,0.3c2.7-1,5.5-1.8,8.3-2.2c5-1.9,34.7-12.3,34.7-12.3c13.6-5.4,26.9-12.4,38.7-24.5
							c1.1-1.9,2.2-3.8,3.3-5.7c11-17.7-12.6-31.3-30.1-33.2c-14.9-1.6-26.3,5.9-39.8,11c-21.3,8-43.6,11.3-68.9,7.7
							c-37-5.3-71.6-28.7-79.8-60.8c-1-2.7-1.8-5.5-2.2-8.3c-2.9-16-2.5-32.8,7.2-52.1c1.6-4.5,5.8-11.7,8.9-15.4
							c20.1-29.6,47.8-42.5,74.4-49.6c26.7-7.1,57.4-8.4,89.8,7.9c1.3-0.6,3.4,1.8,5.1,2.4c0.9,0.5,1.8,1,2.6,1.5
							c1.3,1.1,4.4,1.8,4.6,3.2c8.9,3.9,8.8,10.3,11.3,15.9c0.9,2.2,1.5,4.5,1.9,6.9c6.8,20.7-5.5,46-23.7,61.4
							c-17.9,15.1-39.3,28.7-61.1,20.4c-1.5,0.1-5.5-2.2-6.2-3.6c-14.4-11-19.4-24.5-16-40.3c12.8,4.1,14.5,21,28,25.6
							c10.9,3.7,20.8-3.4,28.9-14.4c1.1-1.9,2.2-3.8,3.3-5.7c11.4-22.3,2.4-33-15.4-47.5c-2.8-1.6-5.6-3.2-8.4-4.8
							c-35.8-12.6-62.9-14.8-85.1,23.4c-1.9,3.4-3.9,6.7-5.8,10.1c-16.2,24.2-4.6,42.1,7.6,58.9c7.6,10.5,16.8,23.8,30.4,31.6
							c27.9,16,58.6,8.6,80.4,1.9c14-4.3,28.6-10.2,41.9-18.9l13.1-10c4.8-4.2,9.3-9,13.4-14.3c5.5-7.2,9.7-14.6,12.9-22.3
							L502.8,301.8z"/>
					</defs>
					<clipPath id="SVGID_4_">
						<use xlink:href="#SVGID_3_"  style="overflow:visible;"/>
					</clipPath>
					<g class="st1">
						<g>
							<path class="st2" d="M329.5,164.1c-9.5,3.6-19.1,7.8-28.6,12.3c-2.7,1.3-5.4,2.7-8.2,4.1l58.3,44.8L329.5,164.1z"/>
							<path class="st2" d="M217.9,265.6c-5.6,9.1-10.7,18.5-14.9,28l57.9-0.2L217.9,265.6z"/>
							<path class="st2" d="M207.9,393.4c6,10.6,12.8,20.9,20.7,31l35.2-57.6L207.9,393.4z"/>
							<path class="st2" d="M367.1,482.1c13.2-1.4,25.8-3.5,37.9-6.2l-29.1-60.7L367.1,482.1z"/>
							<path class="st2" d="M455.3,380.3c8.7-5.7,17.2-12.1,25.2-19.2l-45.3-32.5L455.3,380.3z"/>
							<path class="st2" d="M503.8,252c-0.1-0.8-0.2-1.6-0.4-2.4c-1.5-3.8-2.6-7.7-3.1-11.8c-1.4-5.5-3.2-10.8-5.5-16.1l-47.5,24.8
								L503.8,252z"/>
							<path class="st2" d="M457.8,194.6c-1.6-1-3.1-2-4.7-2.9c-3.9-3.1-11.8-5.1-13.2-8.9c-3.8-2.2-7.5-4.3-11.3-6.5l-3.4,62.8
								L457.8,194.6z"/>
							<path class="st2" d="M274.7,206.4c-8.6,6.9-16.8,14.2-24.5,21.6c-0.4,0.4-0.8,0.8-1.2,1.1l54.3,28.5L274.7,206.4z"/>
							<path class="st2" d="M197.6,324.1c-0.3,10.3,0.3,20.4,1.6,30.4l49.8-22.6L197.6,324.1z"/>
							<path class="st2" d="M263.9,453.8c10.8,6.1,22.1,11.9,34.1,17.4l15.8-64L263.9,453.8z"/>
							<path class="st2" d="M458.8,285l44.4,29.2c4-9.6,7.1-19.3,9.3-29L458.8,285z"/>
							<path class="st2" d="M409,169.8c-10.5-2.6-20.9-4.3-31-5.2l7.3,54.8L409,169.8z"/>
							<path class="st2" d="M399.7,393.5c9.3-1.6,18.6-3.8,27.8-6.8l-25.8-43.3L399.7,393.5z"/>
							<path class="st2" d="M309.2,366.4c8.6,8.8,17.8,17.1,27.8,24.7l27.3-59.5L309.2,366.4z"/>
						</g>
					</g>
				</g>
			</g>
		</g>
	</g>
	<g id="Layer_2">
		<g>
			<path class="st3" d="M612.6,287.1c18-1.9,44.5-6.9,43.7,12.2c0,2.2,0,4.4,0,6.6c-1.3,12.5-14.5,14.1-25.9,17.3
				c-21.7,6-47.7,11.6-71.1,13.2c-1.7,0-3.4,0-5.1,0c-10.4-2.2-27.6-7.7-26.9-19.8c0.4-8.1,12.7-13.1,21.8-16.3
				C568.5,293.5,590.7,289.3,612.6,287.1z"/>
			<path class="st3" d="M632.2,462.3c5.9,6.8,1.2,26.6-7.1,28.4c-5.3,1.2-12.5-2.5-16.8-4.6c-25.1-11.9-44.6-23.1-68.5-38.1
				c-7.6-4.8-20.9-11-22.3-19.8c-1.7-10.3,5.5-19.7,14.7-20.8c10-1.2,23.3,3.8,31,7.6c9.1,4.6,16.7,10,23.4,14.7
				c17.1,12.1,31.1,21.3,44.7,31.5C631.7,461.6,631.8,461.8,632.2,462.3z"/>
			<path class="st3" d="M575.1,127c9.9-0.1,19.7,9.3,18.3,19.8c-0.8,5.9-7.7,11.6-13.2,16.8c-16.6,15.5-37.1,33.4-61.4,38.1
				c-2,0-4.1,0-6.1,0c-7.8-1.7-14.8-4.8-15.7-12.2c-1.1-9.1,9.6-17.2,14.2-21.3c12.7-11.4,26.5-19.4,41.1-28.9
				C558.8,134.9,566.8,127,575.1,127z"/>
			<path class="st3" d="M519.2,566.7c2.4,5.3,5.7,11.7,5.6,16.2c-0.3,9-10,17.3-19.8,16.8c-8-0.4-10.6-5.5-16.2-10.2
				c-1.8-2.2-3.9-4.3-6.1-6.1c-20.4-21.9-36.4-48.3-45.2-81.7c0-2.2,0-4.4,0-6.6c0.4-6.7,7.8-15.1,15.2-16.2
				c12.9-1.9,22.3,8.1,28.4,15.7C497.2,514.7,508,541.6,519.2,566.7z"/>
			<path class="st3" d="M405,16.1c12.2,2.4,18.3,10.8,17.3,26.4c-1.2,0.7-0.2,3.5-0.5,5.1c-1.9,23.5-5,58.7-14.2,78.7
				c-3.4,7.5-10.1,17.3-21.8,15.2c-9.7-1.7-13-12-13.7-23.9c0-4.9,0-9.8,0-14.7c0.2-15.6,3-35.8,7.1-50.8c4.1-15,8.5-31.1,21.3-36.1
				C401.9,16.1,403.4,16.1,405,16.1z"/>
			<path class="st3" d="M381.1,562.8c-1.2,1.2-0.2,4.6-0.5,6.6c-2.3,22.2-3.7,45.4-19.8,53.8c-1.5,0-3,0-4.6,0
				c-12.8-6.9-13.9-25.3-15.7-43.2c-0.3-2.7,0.7-6.8-0.5-8.6c0-1.4,0-2.7,0-4.1c1.2-2.5,0.2-7.3,0.5-10.7c0.7-11.7,1.2-22,3.6-33.5
				c1.7-8.3,4.9-23.1,13.2-23.9c10.9-1.1,17.1,14.1,19.8,23.9C380.6,535.8,381,548.3,381.1,562.8z"/>
			<path class="st3" d="M276,495.2c0,3.1,0,6.1,0,9.1c-4.7,28-19,57.6-37.6,77.2c-5.2,5.5-14.6,16.5-24.9,12.2
				c-3.5-1.5-4.6-5.8-5.6-10.7c0-2,0-4.1,0-6.1c5-34,19-58.8,36.1-80.7c2.4-2,4.6-4.2,6.6-6.6C256.9,481.3,276.4,480.2,276,495.2z"
				/>
			<path class="st3" d="M277.5,133.6c2.3,9.5,7.2,24.7-4.6,26.9c-1.7,0-3.4,0-5.1,0c-6.7-0.6-9.5-5-13.7-8.1
				c-2.3-2.8-4.9-5.3-7.6-7.6c-20.7-19-44.2-64-24.4-101.6c10.4,1.5,16.5,11.1,22.3,19.3C258.7,82.4,270.6,105.3,277.5,133.6z"/>
			<path class="st3" d="M208.2,220c2.1,9.8-4.3,16.1-12.7,16.8c-15.7,1.3-34-9.4-44.7-15.7c-13.6-8.1-25-16.5-35-25.4
				c-1.8-2.2-3.9-4.3-6.1-6.1c-5.6-8.1-15.5-14.6-13.7-28.4c12.5-2.3,24.5,2.7,35,6.6c20.6,7.6,39.2,16.7,56.9,29.5
				C195.9,202.9,206,210.1,208.2,220z"/>
			<path class="st3" d="M185.1,425.7c1.6,8.1-5.7,17-10.2,21.8c-10.2,11-23.5,19.4-37.1,25.9c-8,3.9-36.1,12.8-38.1-1.5
				c-1.2-8.4,6.2-11.7,9.1-17.3c1.9-1.5,3.6-3.2,5.1-5.1c9.2-7.3,18-14.8,30-21.3C149.6,425.1,181.8,409.5,185.1,425.7z"/>
			<path class="st3" d="M171.4,316c1.1,18.9-32,21.4-49.8,22.8c-6.1,0-12.2,0-18.3,0C80.7,336.5,57,335.1,48,319c0-1.2,0-2.4,0-3.6
				c6.2-16.9,27.4-19,48.2-21.3c2.1-0.3,5.4,0.7,6.6-0.5c2.5,0,5.1,0,7.6,0c1.4,1.2,4.9,0.2,7.1,0.5c11.8,1,22.2,1.6,33,5.1
				C158.7,301.8,170.8,306.8,171.4,316z"/>
		</g>
		<g>
			<g>
				<path class="st3" d="M407.7,311.3c4.6-0.3,7.9-1.2,12.5,0.9c2.1,1,4.3,1,6.6,0.7c4.9-0.5,8.5-3.3,12.3-6.2
					c1.5-1.1-1.4-1.3-1.9-1.2c-1.9,0.2-3.9,0.8-5.5,1.9c-1.9,1.4-2.5,2.6-5.3,1.3c-1.3-0.6-2.7-1.3-4.2-1.4
					c-3.7-0.3-7.2,0.6-10.9,0.8C409.3,308.3,402.3,311.7,407.7,311.3L407.7,311.3z"/>
			</g>
		</g>
		<g>
			<g>
				<path class="st3" d="M424.7,312.5c2.6,3.3,6.3,5.5,10.5,5.3c1.8-0.1,4.1-0.7,5.5-1.9c1.4-1.3-1.3-1.3-1.9-1.3
					c1.1-0.1-0.3-0.2-0.6-0.3c-0.7-0.3-1.4-0.7-2-1.1c-1.2-0.8-2.4-1.7-3.3-2.9c-0.9-1.1-3.3-0.4-4.4-0.1
					C428.2,310.2,424.1,311.6,424.7,312.5L424.7,312.5z"/>
			</g>
		</g>
	</g>
</g>
<rect x="48" y="599.5" class="st4" width="608.3" height="156.7"/>
<g class="st5">
	<path class="st6" d="M99.9,715.1c5.6,3.4,17.2,7.2,26.2,7.2c9.2,0,13-3,13-8c0-5.2-3-7.6-14.2-11.4c-20.4-6.8-28.2-17.8-28-29.4
		c0-18.4,15.6-32.2,39.8-32.2c11.4,0,21.4,2.8,27.4,5.8l-5.2,21c-4.4-2.4-13-5.6-21.2-5.6c-7.4,0-11.6,3-11.6,7.8s3.8,7.2,15.8,11.4
		c18.6,6.4,26.2,16,26.4,30.2c0,18.4-14.2,31.8-42.2,31.8c-12.8,0-24.2-3-31.6-7L99.9,715.1z"/>
	<path class="st6" d="M279.1,710.1c0,12.8,0.4,23.2,0.8,31.4h-26.4l-1.4-13.8h-0.6c-3.8,6-13,16-30.6,16c-20,0-34.4-12.4-34.4-42.6
		v-57.4h30.4v52.6c0,14.2,4.6,22.8,15.4,22.8c8.4,0,13.4-5.8,15.2-10.6c0.8-1.8,1.2-4,1.2-6.6v-58.2h30.4V710.1z"/>
	<path class="st6" d="M303.5,674.9c0-12.2-0.4-22.4-0.8-31.2h26.4l1.4,13.6h0.6c4-6.4,13.8-15.8,30.2-15.8c20,0,35,13.4,35,42.2
		v57.8h-30.4v-54.2c0-12.6-4.4-21.2-15.4-21.2c-8.4,0-13.4,5.8-15.6,11.4c-0.8,2-1,4.8-1,7.6v56.4h-30.4V674.9z"/>
</g>
<g class="st5">
	<path class="st7" d="M423.1,676.3c0-12.4-0.4-22.4-0.8-31.6h15.6l1,16.6h0.4c7-11.8,18.6-18.6,34.4-18.6c23.6,0,41.2,19.8,41.2,49
		c0,34.8-21.4,52-44.2,52c-12.8,0-24-5.6-29.8-15.2h-0.4v52.6h-17.4V676.3z M440.5,702.1c0,2.6,0.2,5,0.8,7.2
		c3.2,12.2,13.8,20.6,26.4,20.6c18.6,0,29.4-15.2,29.4-37.4c0-19.2-10.2-35.8-28.8-35.8c-12,0-23.4,8.4-26.6,21.6
		c-0.6,2.2-1.2,4.8-1.2,7V702.1z"/>
	<path class="st7" d="M541.9,644.7l21,57.2c2.4,6.4,4.8,14,6.4,19.8h0.4c1.8-5.8,3.8-13.2,6.2-20.2l19.2-56.8h18.6l-26.4,69
		c-12.6,33.2-21.2,50-33.2,60.6c-8.8,7.4-17.2,10.4-21.6,11.2l-4.4-14.6c4.4-1.4,10.2-4.2,15.4-8.6c4.8-3.8,10.6-10.6,14.8-19.6
		c0.8-1.8,1.4-3.2,1.4-4.2s-0.4-2.4-1.4-4.6l-35.6-89.2H541.9z"/>
</g>
<g class="st5">
	<path class="st8" d="M423.1,676.3c0-12.4-0.4-22.4-0.8-31.6h15.6l1,16.6h0.4c7-11.8,18.6-18.6,34.4-18.6c23.6,0,41.2,19.8,41.2,49
		c0,34.8-21.4,52-44.2,52c-12.8,0-24-5.6-29.8-15.2h-0.4v52.6h-17.4V676.3z M440.5,702.1c0,2.6,0.2,5,0.8,7.2
		c3.2,12.2,13.8,20.6,26.4,20.6c18.6,0,29.4-15.2,29.4-37.4c0-19.2-10.2-35.8-28.8-35.8c-12,0-23.4,8.4-26.6,21.6
		c-0.6,2.2-1.2,4.8-1.2,7V702.1z"/>
	<path class="st8" d="M541.9,644.7l21,57.2c2.4,6.4,4.8,14,6.4,19.8h0.4c1.8-5.8,3.8-13.2,6.2-20.2l19.2-56.8h18.6l-26.4,69
		c-12.6,33.2-21.2,50-33.2,60.6c-8.8,7.4-17.2,10.4-21.6,11.2l-4.4-14.6c4.4-1.4,10.2-4.2,15.4-8.6c4.8-3.8,10.6-10.6,14.8-19.6
		c0.8-1.8,1.4-3.2,1.4-4.2s-0.4-2.4-1.4-4.6l-35.6-89.2H541.9z"/>
</g>
</svg>
