<?xml version="1.0" encoding="utf-8"?>
<!-- Generator: Adobe Illustrator 19.0.1, SVG Export Plug-In . SVG Version: 6.00 Build 0)  -->
<svg version="1.1" id="Layer_1" xmlns="http://www.w3.org/2000/svg" xmlns:xlink="http://www.w3.org/1999/xlink" x="0px" y="0px"
	 viewBox="115.4 225.3 736.6 342.4" style="enable-background:new 115.4 225.3 736.6 342.4;" xml:space="preserve">
<style type="text/css">
	.st0{clip-path:url(#SVGID_2_);fill:#FED20B;}
	.st1{clip-path:url(#SVGID_4_);}
	.st2{fill:#F27900;}
	.st3{fill:#FED20B;}
	.st4{fill:none;}
	.st5{enable-background:new    ;}
	.st6{font-family:'MyriadPro-Regular';}
	.st7{font-size:140px;}
	.st8{fill:none;stroke:#444444;stroke-width:1.5;}
	.st9{fill:#444444;}
</style>
<g>
	<g id="Layer_1_1_">
		<g>
			<g>
				<g>
					<defs>
						<path id="SVGID_1_" d="M372,386.4c2-8.6,2-17.3,0.6-25.3l-3-10.1c-3.9-9.3-11.9-17.5-23.5-24.8l-7.4-4.6
							c-1.2-0.7-2.4-1.4-3.6-2.1c-1.3,0-2.9-1.6-4.4-2.2c-5.8-3-11.3-5.1-16.5-6.4l-8.9-1.5c-10.3-0.9-19.9,1.1-29.3,4.8l-11.3,5
							c-8.4,4.2-32.5,23.1-32.5,23.1c-3.8,3.7-15.3,17-22.8,31.6c-6.9,13.5-10,28.3-10.1,31.8c0,0,1.4,16.1,2,18.8
							c0.6,1.5,4.7,14,7.2,18.4l5.5,8.2c3.4,4.4,7.5,8.5,12.4,12.5l6.2,4.6c2.7,1.9,19,10,22.6,11.4l11.2,3.5
							c14.8,3.6,28.5,3.2,41.6,0.2c1.5-0.6,3.1-1,4.7-1.3c2.8-1.1,19.6-6.9,19.6-6.9c7.7-3,15.2-7,21.8-13.8
							c0.6-1.1,1.2-2.1,1.9-3.2c6.2-10-7.1-17.7-17-18.7c-8.4-0.9-14.8,3.3-22.4,6.2c-12,4.5-24.6,6.4-38.9,4.3
							c-20.9-3-40.4-16.2-45-34.3c-0.6-1.5-1-3.1-1.3-4.7c-1.6-9-1.4-18.5,4.1-29.4c0.9-2.6,3.3-6.6,5-8.7c11.4-16.7,27-24,42-28
							c15.1-4,32.4-4.7,50.7,4.5c0.8-0.3,1.9,1,2.9,1.3c0.5,0.3,1,0.6,1.5,0.9c0.7,0.6,2.5,1,2.6,1.8c5,2.2,5,5.8,6.4,9
							c0.5,1.3,0.9,2.6,1,3.9c3.9,11.7-3.1,25.9-13.4,34.6c-10.1,8.5-22.1,16.2-34.4,11.5c-0.8,0.1-3.1-1.3-3.5-2
							c-8.1-6.2-11-13.8-9-22.7c7.2,2.3,8.2,11.9,15.8,14.4c6.1,2.1,11.7-1.9,16.3-8.1c0.6-1.1,1.2-2.1,1.9-3.2
							c6.4-12.6,1.4-18.6-8.7-26.8c-1.6-0.9-3.1-1.8-4.7-2.7c-20.2-7.1-35.5-8.4-48,13.2c-1.1,1.9-2.2,3.8-3.3,5.7
							c-9.1,13.6-2.6,23.7,4.3,33.2c4.3,5.9,9.5,13.4,17.1,17.8c15.7,9,33.1,4.8,45.4,1.1c7.9-2.4,16.1-5.7,23.6-10.7l7.4-5.6
							c2.7-2.4,5.2-5.1,7.5-8.1c3.1-4,5.5-8.3,7.3-12.6L372,386.4z"/>
					</defs>
					<clipPath id="SVGID_2_">
						<use xlink:href="#SVGID_1_"  style="overflow:visible;"/>
					</clipPath>
					<rect x="195.8" y="306.8" class="st0" width="181.8" height="182.2"/>
				</g>
			</g>
		</g>
		<g>
			<g>
				<g>
					<defs>
						<path id="SVGID_3_" d="M372,386.4c2-8.6,2-17.3,0.6-25.3l-3-10.1c-3.9-9.3-11.9-17.5-23.5-24.8l-7.4-4.6
							c-1.2-0.7-2.4-1.4-3.6-2.1c-1.3,0-2.9-1.6-4.4-2.2c-5.8-3-11.3-5.1-16.5-6.4l-8.9-1.5c-10.3-0.9-19.9,1.1-29.3,4.8l-11.3,5
							c-8.4,4.2-32.5,23.1-32.5,23.1c-3.8,3.7-15.3,17-22.8,31.6c-6.9,13.5-10,28.3-10.1,31.8c0,0,1.4,16.1,2,18.8
							c0.6,1.5,4.7,14,7.2,18.4l5.5,8.2c3.4,4.4,7.5,8.5,12.4,12.5l6.2,4.6c2.7,1.9,19,10,22.6,11.4l11.2,3.5
							c14.8,3.6,28.5,3.2,41.6,0.2c1.5-0.6,3.1-1,4.7-1.3c2.8-1.1,19.6-6.9,19.6-6.9c7.7-3,15.2-7,21.8-13.8
							c0.6-1.1,1.2-2.1,1.9-3.2c6.2-10-7.1-17.7-17-18.7c-8.4-0.9-14.8,3.3-22.4,6.2c-12,4.5-24.6,6.4-38.9,4.3
							c-20.9-3-40.4-16.2-45-34.3c-0.6-1.5-1-3.1-1.3-4.7c-1.6-9-1.4-18.5,4.1-29.4c0.9-2.6,3.3-6.6,5-8.7c11.4-16.7,27-24,42-28
							c15.1-4,32.4-4.7,50.7,4.5c0.8-0.3,1.9,1,2.9,1.3c0.5,0.3,1,0.6,1.5,0.9c0.7,0.6,2.5,1,2.6,1.8c5,2.2,5,5.8,6.4,9
							c0.5,1.3,0.9,2.6,1,3.9c3.9,11.7-3.1,25.9-13.4,34.6c-10.1,8.5-22.1,16.2-34.4,11.5c-0.8,0.1-3.1-1.3-3.5-2
							c-8.1-6.2-11-13.8-9-22.7c7.2,2.3,8.2,11.9,15.8,14.4c6.1,2.1,11.7-1.9,16.3-8.1c0.6-1.1,1.2-2.1,1.9-3.2
							c6.4-12.6,1.4-18.6-8.7-26.8c-1.6-0.9-3.1-1.8-4.7-2.7c-20.2-7.1-35.5-8.4-48,13.2c-1.1,1.9-2.2,3.8-3.3,5.7
							c-9.1,13.6-2.6,23.7,4.3,33.2c4.3,5.9,9.5,13.4,17.1,17.8c15.7,9,33.1,4.8,45.4,1.1c7.9-2.4,16.1-5.7,23.6-10.7l7.4-5.6
							c2.7-2.4,5.2-5.1,7.5-8.1c3.1-4,5.5-8.3,7.3-12.6L372,386.4z"/>
					</defs>
					<clipPath id="SVGID_4_">
						<use xlink:href="#SVGID_3_"  style="overflow:visible;"/>
					</clipPath>
					<g class="st1">
						<g>
							<path class="st2" d="M274.2,308.7c-5.4,2.1-10.8,4.4-16.2,6.9c-1.5,0.7-3.1,1.5-4.6,2.3l32.9,25.3L274.2,308.7z"/>
							<path class="st2" d="M211.3,366c-3.2,5.1-6,10.4-8.4,15.8l32.7-0.1L211.3,366z"/>
							<path class="st2" d="M205.7,438.1c3.4,6,7.2,11.8,11.7,17.5l19.9-32.5L205.7,438.1z"/>
							<path class="st2" d="M295.4,488.2c7.5-0.8,14.6-2,21.4-3.5l-16.4-34.2L295.4,488.2z"/>
							<path class="st2" d="M345.2,430.7c4.9-3.2,9.7-6.8,14.2-10.8l-25.5-18.3L345.2,430.7z"/>
							<path class="st2" d="M372.5,358.4c-0.1-0.4-0.1-0.9-0.2-1.3c-0.9-2.1-1.5-4.4-1.8-6.6c-0.8-3.1-1.8-6.1-3.1-9.1l-26.8,14
								L372.5,358.4z"/>
							<path class="st2" d="M346.6,326c-0.9-0.5-1.7-1.1-2.6-1.6c-2.2-1.7-6.7-2.9-7.4-5c-2.1-1.2-4.2-2.4-6.4-3.7l-1.9,35.4
								L346.6,326z"/>
							<path class="st2" d="M243.3,332.6c-4.8,3.9-9.5,8-13.8,12.2c-0.2,0.2-0.4,0.4-0.6,0.6l30.6,16.1L243.3,332.6z"/>
							<path class="st2" d="M199.9,399c-0.2,5.8,0.2,11.5,0.9,17.2l28.1-12.7L199.9,399z"/>
							<path class="st2" d="M237.2,472.2c6.1,3.4,12.5,6.7,19.2,9.8l8.9-36.1L237.2,472.2z"/>
							<path class="st2" d="M347.2,377l25.1,16.4c2.2-5.4,4-10.9,5.3-16.3L347.2,377z"/>
							<path class="st2" d="M319,312c-6-1.5-11.8-2.4-17.5-2.9l4.1,30.9L319,312z"/>
							<path class="st2" d="M313.8,438.1c5.3-0.9,10.5-2.2,15.7-3.8L315,409.9L313.8,438.1z"/>
							<path class="st2" d="M262.8,422.9c4.8,5,10.1,9.6,15.7,13.9l15.4-33.6L262.8,422.9z"/>
						</g>
					</g>
				</g>
			</g>
		</g>
	</g>
	<g id="Layer_2">
		<g>
			<path class="st3" d="M433.9,378.1c10.1-1.1,25.1-3.9,24.6,6.9c0,1.2,0,2.5,0,3.7c-0.7,7.1-8.2,8-14.6,9.7
				c-12.3,3.4-26.9,6.5-40.1,7.4c-1,0-1.9,0-2.9,0c-5.8-1.3-15.5-4.4-15.2-11.2c0.3-4.6,7.1-7.4,12.3-9.2
				C409,381.8,421.6,379.4,433.9,378.1z"/>
			<path class="st3" d="M445,476.9c3.3,3.8,0.7,15-4,16c-3,0.7-7-1.4-9.5-2.6c-14.1-6.7-25.2-13-38.7-21.5
				c-4.3-2.7-11.8-6.2-12.6-11.2c-1-5.8,3.1-11.1,8.3-11.7c5.7-0.7,13.1,2.1,17.5,4.3c5.1,2.6,9.4,5.6,13.2,8.3
				c9.6,6.8,17.6,12,25.2,17.8C444.7,476.6,444.7,476.7,445,476.9z"/>
			<path class="st3" d="M412.8,287.8c5.6,0,11.1,5.3,10.3,11.2c-0.4,3.3-4.4,6.6-7.4,9.5c-9.3,8.8-20.9,18.8-34.7,21.5
				c-1.1,0-2.3,0-3.4,0c-4.4-0.9-8.4-2.7-8.9-6.9c-0.6-5.1,5.4-9.7,8-12c7.2-6.4,14.9-11,23.2-16.3
				C403.6,292.3,408.1,287.8,412.8,287.8z"/>
			<path class="st3" d="M381.2,535.8c1.3,3,3.2,6.6,3.1,9.2c-0.2,5-5.6,9.7-11.2,9.5c-4.5-0.2-6-3.1-9.2-5.7c-1-1.3-2.2-2.4-3.4-3.4
				c-11.5-12.3-20.5-27.2-25.5-46.1c0-1.2,0-2.5,0-3.7c0.2-3.8,4.4-8.5,8.6-9.2c7.3-1.1,12.6,4.6,16,8.9
				C368.8,506.5,374.9,521.7,381.2,535.8z"/>
			<path class="st3" d="M316.8,225.3c6.9,1.3,10.3,6.1,9.7,14.9c-0.7,0.4-0.1,2-0.3,2.9c-1,13.3-2.8,33.1-8,44.4
				c-1.9,4.2-5.7,9.8-12.3,8.6c-5.5-1-7.3-6.8-7.7-13.5c0-2.8,0-5.5,0-8.3c0.1-8.8,1.7-20.2,4-28.6c2.3-8.5,4.8-17.5,12-20.3
				C315.1,225.3,315.9,225.3,316.8,225.3z"/>
			<path class="st3" d="M303.3,533.6c-0.7,0.7-0.1,2.6-0.3,3.7c-1.3,12.5-2.1,25.6-11.2,30.4c-0.9,0-1.7,0-2.6,0
				c-7.2-3.9-7.9-14.3-8.9-24.3c-0.2-1.5,0.4-3.8-0.3-4.9c0-0.8,0-1.5,0-2.3c0.7-1.4,0.1-4.1,0.3-6c0.4-6.6,0.7-12.4,2-18.9
				c1-4.7,2.7-13,7.4-13.5c6.1-0.6,9.6,8,11.2,13.5C303,518.4,303.2,525.5,303.3,533.6z"/>
			<path class="st3" d="M244,495.6c0,1.7,0,3.4,0,5.2c-2.6,15.8-10.7,32.5-21.2,43.5c-3,3.1-8.2,9.3-14,6.9c-2-0.8-2.6-3.2-3.1-6
				c0-1.1,0-2.3,0-3.4c2.8-19.2,10.7-33.2,20.3-45.5c1.4-1.1,2.6-2.4,3.7-3.7C233.3,487.7,244.3,487.1,244,495.6z"/>
			<path class="st3" d="M244.9,291.6c1.3,5.4,4.1,13.9-2.6,15.2c-1,0-1.9,0-2.9,0c-3.8-0.3-5.4-2.8-7.7-4.6c-1.3-1.6-2.7-3-4.3-4.3
				c-11.7-10.7-25-36.1-13.7-57.3c5.8,0.9,9.3,6.3,12.6,10.9C234.3,262.7,241,275.6,244.9,291.6z"/>
			<path class="st3" d="M205.8,340.3c1.2,5.5-2.4,9.1-7.2,9.5c-8.9,0.7-19.2-5.3-25.2-8.9c-7.7-4.6-14.1-9.3-19.8-14.3
				c-1-1.3-2.2-2.4-3.4-3.4c-3.2-4.6-8.7-8.2-7.7-16c7.1-1.3,13.8,1.5,19.8,3.7c11.6,4.3,22.1,9.4,32.1,16.6
				C198.8,330.7,204.6,334.7,205.8,340.3z"/>
			<path class="st3" d="M192.8,456.3c0.9,4.6-3.2,9.6-5.7,12.3c-5.7,6.2-13.3,10.9-20.9,14.6c-4.5,2.2-20.4,7.2-21.5-0.9
				c-0.7-4.7,3.5-6.6,5.2-9.7c1.1-0.8,2-1.8,2.9-2.9c5.2-4.1,10.2-8.3,16.9-12C172.8,456,190.9,447.2,192.8,456.3z"/>
			<path class="st3" d="M185,394.5c0.6,10.6-18,12.1-28.1,12.9c-3.4,0-6.9,0-10.3,0c-12.8-1.3-26.1-2.1-31.2-11.2c0-0.7,0-1.3,0-2
				c3.5-9.6,15.4-10.7,27.2-12c1.2-0.2,3,0.4,3.7-0.3c1.4,0,2.9,0,4.3,0c0.8,0.7,2.8,0.1,4,0.3c6.6,0.6,12.5,0.9,18.6,2.9
				C177.9,386.5,184.7,389.2,185,394.5z"/>
		</g>
		<g>
			<g>
				<path class="st3" d="M318.4,391.8c2.6-0.2,4.5-0.7,7.1,0.5c1.2,0.5,2.4,0.5,3.7,0.4c2.8-0.3,4.8-1.9,6.9-3.5
					c0.9-0.6-0.8-0.7-1.1-0.7c-1.1,0.1-2.2,0.4-3.1,1.1c-1.1,0.8-1.4,1.5-3,0.7c-0.8-0.3-1.5-0.7-2.4-0.8c-2.1-0.2-4.1,0.3-6.2,0.5
					C319.2,390.1,315.3,392,318.4,391.8L318.4,391.8z"/>
			</g>
		</g>
		<g>
			<g>
				<path class="st3" d="M327.9,392.4c1.5,1.9,3.5,3.1,5.9,3c1,0,2.3-0.4,3.1-1.1c0.8-0.7-0.7-0.7-1.1-0.7c0.6,0-0.1-0.1-0.3-0.2
					c-0.4-0.2-0.8-0.4-1.1-0.6c-0.7-0.4-1.3-1-1.8-1.6c-0.5-0.6-1.9-0.2-2.5-0.1C329.9,391.2,327.6,392,327.9,392.4L327.9,392.4z"/>
			</g>
		</g>
	</g>
</g>
<rect x="484" y="281.9" class="st4" width="380" height="123"/>
<g class="st5">
	<path class="st2" d="M492.4,362.8c3.9,2.4,12,5,18.3,5c6.4,0,9.1-2.1,9.1-5.6c0-3.6-2.1-5.3-9.9-8c-14.3-4.8-19.7-12.5-19.6-20.6
		c0-12.9,10.9-22.5,27.9-22.5c8,0,15,2,19.2,4.1l-3.6,14.7c-3.1-1.7-9.1-3.9-14.8-3.9c-5.2,0-8.1,2.1-8.1,5.5s2.7,5,11.1,8
		c13,4.5,18.3,11.2,18.5,21.1c0,12.9-9.9,22.3-29.5,22.3c-9,0-16.9-2.1-22.1-4.9L492.4,362.8z"/>
	<path class="st2" d="M617.8,359.3c0,9,0.3,16.2,0.6,22h-18.5l-1-9.7h-0.4c-2.7,4.2-9.1,11.2-21.4,11.2c-14,0-24.1-8.7-24.1-29.8
		v-40.2h21.3v36.8c0,9.9,3.2,16,10.8,16c5.9,0,9.4-4.1,10.6-7.4c0.6-1.3,0.8-2.8,0.8-4.6v-40.7h21.3V359.3z"/>
	<path class="st2" d="M634.9,334.7c0-8.5-0.3-15.7-0.6-21.8h18.5l1,9.5h0.4c2.8-4.5,9.7-11.1,21.1-11.1c14,0,24.5,9.4,24.5,29.5
		v40.5h-21.3v-37.9c0-8.8-3.1-14.8-10.8-14.8c-5.9,0-9.4,4.1-10.9,8c-0.6,1.4-0.7,3.4-0.7,5.3v39.5h-21.3V334.7z"/>
</g>
<text transform="matrix(1 0 0 1 708.418 381.3057)" class="st3 st6 st7">py</text>
<g class="st5">
	<path class="st8" d="M718.6,335.7c0-8.7-0.3-15.7-0.6-22.1H729l0.7,11.6h0.3c4.9-8.3,13-13,24.1-13c16.5,0,28.8,13.9,28.8,34.3
		c0,24.4-15,36.4-30.9,36.4c-9,0-16.8-3.9-20.9-10.6h-0.3V409h-12.2V335.7z M730.8,353.7c0,1.8,0.1,3.5,0.6,5
		c2.2,8.5,9.7,14.4,18.5,14.4c13,0,20.6-10.6,20.6-26.2c0-13.4-7.1-25.1-20.2-25.1c-8.4,0-16.4,5.9-18.6,15.1
		c-0.4,1.5-0.8,3.4-0.8,4.9V353.7z"/>
	<path class="st8" d="M801.8,313.5l14.7,40c1.7,4.5,3.4,9.8,4.5,13.9h0.3c1.3-4.1,2.7-9.2,4.3-14.1l13.4-39.8h13l-18.5,48.3
		c-8.8,23.2-14.8,35-23.2,42.4c-6.2,5.2-12,7.3-15.1,7.8l-3.1-10.2c3.1-1,7.1-2.9,10.8-6c3.4-2.7,7.4-7.4,10.4-13.7
		c0.6-1.3,1-2.2,1-2.9c0-0.7-0.3-1.7-1-3.2l-24.9-62.4H801.8z"/>
</g>
<rect x="485" y="426.6" class="st4" width="380" height="82.9"/>
<g class="st5">
	<path class="st9" d="M520.2,444.5l-2.5,7.6h-3.2l8.3-24.3h3.7l8.3,24.3h-3.3l-2.6-7.6H520.2z M528.2,442.1l-2.4-7
		c-0.5-1.6-0.9-3-1.3-4.4h-0.1c-0.4,1.4-0.7,2.9-1.2,4.4l-2.4,7H528.2z"/>
	<path class="st9" d="M562.9,451.4c-1.1,0.6-3.5,1.2-6.4,1.2c-6.8,0-12-4.3-12-12.3c0-7.6,5.1-12.7,12.7-12.7c3,0,4.9,0.6,5.8,1.1
		l-0.8,2.6c-1.2-0.6-2.8-1-4.9-1c-5.7,0-9.5,3.6-9.5,10c0,6,3.4,9.8,9.3,9.8c1.9,0,3.9-0.4,5.1-1L562.9,451.4z"/>
	<path class="st9" d="M582.1,443.3c0,6.4-4.5,9.2-8.7,9.2c-4.7,0-8.4-3.5-8.4-9c0-5.8,3.9-9.2,8.6-9.2
		C578.7,434.4,582.1,438,582.1,443.3z M568.3,443.5c0,3.8,2.2,6.7,5.3,6.7c3,0,5.3-2.8,5.3-6.8c0-3-1.5-6.7-5.2-6.7
		C570,436.8,568.3,440.2,568.3,443.5z"/>
	<path class="st9" d="M586.1,439.5c0-1.8-0.1-3.3-0.1-4.7h2.8l0.1,2.8h0.1c1-1.7,2.6-3.2,5.5-3.2c2.3,0,4.1,1.4,4.9,3.5h0.1
		c0.5-1,1.3-1.7,2-2.3c1-0.8,2.2-1.2,3.8-1.2c2.3,0,5.8,1.5,5.8,7.6v10.2h-3.1v-9.8c0-3.4-1.3-5.4-3.8-5.4c-1.8,0-3.2,1.3-3.8,2.8
		c-0.1,0.5-0.3,1-0.3,1.6v10.8H597v-10.4c0-2.8-1.2-4.8-3.6-4.8c-1.9,0-3.4,1.6-3.9,3.2c-0.2,0.4-0.3,1-0.3,1.5v10.5h-3.1V439.5z"/>
	<path class="st9" d="M616.1,439.5c0-1.8-0.1-3.3-0.1-4.7h2.8l0.1,2.8h0.1c1-1.7,2.6-3.2,5.5-3.2c2.3,0,4.1,1.4,4.9,3.5h0.1
		c0.5-1,1.3-1.7,2-2.3c1-0.8,2.2-1.2,3.8-1.2c2.3,0,5.8,1.5,5.8,7.6v10.2H638v-9.8c0-3.4-1.3-5.4-3.8-5.4c-1.8,0-3.2,1.3-3.8,2.8
		c-0.1,0.5-0.3,1-0.3,1.6v10.8H627v-10.4c0-2.8-1.2-4.8-3.6-4.8c-1.9,0-3.4,1.6-3.9,3.2c-0.2,0.4-0.3,1-0.3,1.5v10.5h-3.1V439.5z"/>
	<path class="st9" d="M660.7,447.4c0,1.8,0,3.4,0.1,4.8h-2.8l-0.2-2.8h-0.1c-0.8,1.4-2.7,3.2-5.8,3.2c-2.7,0-6-1.5-6-7.6v-10.2h3.2
		v9.6c0,3.3,1,5.6,3.9,5.6c2.1,0,3.6-1.5,4.2-2.9c0.2-0.4,0.3-1,0.3-1.6v-10.7h3.2V447.4z"/>
	<path class="st9" d="M666,439.5c0-1.8,0-3.3-0.1-4.7h2.8l0.2,2.9h0.1c0.9-1.6,2.9-3.2,5.8-3.2c2.4,0,6.2,1.4,6.2,7.4v10.4h-3.2v-10
		c0-2.8-1-5.1-4-5.1c-2.1,0-3.7,1.5-4.2,3.2c-0.1,0.4-0.2,0.9-0.2,1.5v10.5H666V439.5z"/>
	<path class="st9" d="M689.5,429.9c0,1.1-0.8,1.9-2,1.9c-1.2,0-1.9-0.9-1.9-1.9s0.8-2,2-2C688.7,427.9,689.5,428.7,689.5,429.9z
		 M686,452.2v-17.4h3.2v17.4H686z"/>
	<path class="st9" d="M698.2,430.6v4.2h4.5v2.4h-4.5v9.4c0,2.2,0.6,3.4,2.4,3.4c0.9,0,1.4-0.1,1.8-0.2l0.1,2.4
		c-0.6,0.2-1.6,0.4-2.8,0.4c-1.5,0-2.7-0.5-3.4-1.3c-0.9-1-1.2-2.5-1.2-4.6v-9.5h-2.7v-2.4h2.7v-3.2L698.2,430.6z"/>
	<path class="st9" d="M707.8,434.7l3.8,10.3c0.4,1.2,0.9,2.5,1.2,3.6h0.1c0.3-1,0.7-2.4,1.1-3.6l3.5-10.2h3.3l-4.8,12.4
		c-2.3,6-3.8,9-6,10.9c-1.6,1.3-3.1,1.9-3.9,2l-0.8-2.6c0.8-0.3,1.8-0.8,2.8-1.5c0.9-0.7,1.9-1.9,2.7-3.5c0.1-0.3,0.3-0.6,0.3-0.8
		s-0.1-0.4-0.3-0.8l-6.4-16.1H707.8z"/>
	<path class="st9" d="M731.3,428.2c1.5-0.3,3.5-0.5,6-0.5c3.1,0,5.4,0.7,6.8,2c1.3,1.2,2.1,2.9,2.1,5.1c0,2.2-0.6,3.9-1.9,5.2
		c-1.7,1.8-4.4,2.7-7.4,2.7c-0.9,0-1.8,0-2.5-0.2v9.7h-3.1V428.2z M734.5,439.9c0.7,0.2,1.5,0.3,2.6,0.3c3.8,0,6.1-1.9,6.1-5.1
		c0-3.2-2.3-4.8-5.7-4.8c-1.4,0-2.4,0.1-3,0.3V439.9z"/>
	<path class="st9" d="M751.7,434.7l3.8,10.3c0.4,1.2,0.9,2.5,1.2,3.6h0.1c0.3-1,0.7-2.4,1.1-3.6l3.5-10.2h3.3l-4.8,12.4
		c-2.3,6-3.8,9-6,10.9c-1.6,1.3-3.1,1.9-3.9,2l-0.8-2.6c0.8-0.3,1.8-0.8,2.8-1.5c0.9-0.7,1.9-1.9,2.7-3.5c0.1-0.3,0.3-0.6,0.3-0.8
		s-0.1-0.4-0.3-0.8l-6.4-16.1H751.7z"/>
	<path class="st9" d="M771.3,430.6v4.2h4.5v2.4h-4.5v9.4c0,2.2,0.6,3.4,2.4,3.4c0.9,0,1.4-0.1,1.8-0.2l0.1,2.4
		c-0.6,0.2-1.6,0.4-2.8,0.4c-1.5,0-2.7-0.5-3.4-1.3c-0.9-1-1.2-2.5-1.2-4.6v-9.5h-2.7v-2.4h2.7v-3.2L771.3,430.6z"/>
	<path class="st9" d="M779.4,426.6h3.2v10.9h0.1c0.5-0.9,1.3-1.7,2.3-2.3c0.9-0.5,2.1-0.9,3.2-0.9c2.3,0,6.1,1.4,6.1,7.4v10.4h-3.2
		v-10c0-2.8-1-5.1-4-5.1c-2.1,0-3.6,1.4-4.2,3.1c-0.2,0.5-0.2,0.9-0.2,1.5v10.5h-3.2V426.6z"/>
	<path class="st9" d="M815.1,443.3c0,6.4-4.5,9.2-8.7,9.2c-4.7,0-8.4-3.5-8.4-9c0-5.8,3.9-9.2,8.6-9.2
		C811.8,434.4,815.1,438,815.1,443.3z M801.4,443.5c0,3.8,2.2,6.7,5.3,6.7c3,0,5.3-2.8,5.3-6.8c0-3-1.5-6.7-5.2-6.7
		C803,436.8,801.4,440.2,801.4,443.5z"/>
	<path class="st9" d="M819.1,439.5c0-1.8,0-3.3-0.1-4.7h2.8l0.2,2.9h0.1c0.9-1.6,2.9-3.2,5.8-3.2c2.4,0,6.2,1.4,6.2,7.4v10.4h-3.2
		v-10c0-2.8-1-5.1-4-5.1c-2.1,0-3.7,1.5-4.2,3.2c-0.1,0.4-0.2,0.9-0.2,1.5v10.5h-3.2V439.5z"/>
</g>
<g class="st5">
	<path class="st9" d="M501.2,471.1h3.2v21.6h10.4v2.6h-13.5V471.1z"/>
	<path class="st9" d="M521.7,473.1c0,1.1-0.8,1.9-2,1.9c-1.2,0-1.9-0.9-1.9-1.9s0.8-2,2-2C520.9,471.1,521.7,471.9,521.7,473.1z
		 M518.2,495.4v-17.4h3.2v17.4H518.2z"/>
	<path class="st9" d="M526.6,469.8h3.1v10.9h0.1c1.1-1.9,3.1-3.2,5.9-3.2c4.4,0,7.4,3.6,7.4,8.9c0,6.2-4,9.3-7.8,9.3
		c-2.5,0-4.5-1-5.9-3.2h-0.1l-0.2,2.8h-2.7c0.1-1.2,0.1-3,0.1-4.5V469.8z M529.7,488.4c0,0.4,0,0.8,0.1,1.2c0.6,2.2,2.4,3.7,4.8,3.7
		c3.3,0,5.3-2.7,5.3-6.7c0-3.5-1.8-6.5-5.2-6.5c-2.1,0-4.1,1.5-4.8,3.9c-0.1,0.4-0.2,0.8-0.2,1.3V488.4z"/>
	<path class="st9" d="M547.1,483.4c0-2.1,0-3.8-0.1-5.4h2.8l0.1,3.5h0.1c0.8-2.3,2.7-3.8,4.9-3.8c0.3,0,0.6,0,0.9,0.1v3
		c-0.3-0.1-0.6-0.1-1.1-0.1c-2.2,0-3.8,1.7-4.2,4c-0.1,0.4-0.1,1-0.1,1.5v9.3h-3.2V483.4z"/>
	<path class="st9" d="M570.9,491.2c0,1.5,0.1,3,0.3,4.2h-2.8l-0.3-2.2H568c-1,1.4-2.8,2.6-5.3,2.6c-3.5,0-5.3-2.5-5.3-5
		c0-4.2,3.7-6.5,10.5-6.5v-0.4c0-1.4-0.4-4-4-4c-1.7,0-3.3,0.5-4.6,1.3l-0.7-2.1c1.4-0.9,3.6-1.5,5.8-1.5c5.3,0,6.6,3.6,6.6,7.1
		V491.2z M567.8,486.5c-3.5-0.1-7.4,0.5-7.4,3.9c0,2.1,1.4,3,3,3c2.3,0,3.8-1.4,4.3-2.9c0.1-0.4,0.1-0.7,0.1-1V486.5z"/>
	<path class="st9" d="M576,483.4c0-2.1,0-3.8-0.1-5.4h2.8l0.1,3.5h0.1c0.8-2.3,2.7-3.8,4.9-3.8c0.3,0,0.6,0,0.9,0.1v3
		c-0.3-0.1-0.6-0.1-1.1-0.1c-2.2,0-3.8,1.7-4.2,4c-0.1,0.4-0.1,1-0.1,1.5v9.3H576V483.4z"/>
	<path class="st9" d="M589.8,477.9l3.8,10.3c0.4,1.2,0.9,2.5,1.2,3.6h0.1c0.3-1,0.7-2.4,1.1-3.6l3.5-10.2h3.3l-4.8,12.4
		c-2.3,6-3.8,9-6,10.9c-1.6,1.3-3.1,1.9-3.9,2l-0.8-2.6c0.8-0.3,1.8-0.8,2.8-1.5c0.9-0.7,1.9-1.9,2.7-3.5c0.1-0.3,0.3-0.6,0.3-0.8
		s-0.1-0.4-0.3-0.8l-6.4-16.1H589.8z"/>
	<path class="st9" d="M613.6,495.4v-15h-2.4v-2.4h2.4v-0.8c0-2.4,0.6-4.7,2-6.1c1.2-1.2,2.8-1.6,4.2-1.6c1.2,0,2.1,0.3,2.7,0.5
		l-0.4,2.4c-0.5-0.2-1.1-0.4-2-0.4c-2.7,0-3.4,2.3-3.4,5v0.9h4.2v2.4h-4.2v15H613.6z"/>
	<path class="st9" d="M639.1,486.5c0,6.4-4.5,9.2-8.7,9.2c-4.7,0-8.4-3.5-8.4-9c0-5.8,3.9-9.2,8.6-9.2
		C635.7,477.6,639.1,481.2,639.1,486.5z M625.3,486.7c0,3.8,2.2,6.7,5.3,6.7c3,0,5.3-2.8,5.3-6.8c0-3-1.5-6.7-5.2-6.7
		C626.9,480,625.3,483.4,625.3,486.7z"/>
	<path class="st9" d="M643.1,483.4c0-2.1,0-3.8-0.1-5.4h2.8l0.1,3.5h0.1c0.8-2.3,2.7-3.8,4.9-3.8c0.3,0,0.6,0,0.9,0.1v3
		c-0.3-0.1-0.6-0.1-1.1-0.1c-2.2,0-3.8,1.7-4.2,4c-0.1,0.4-0.1,1-0.1,1.5v9.3h-3.2V483.4z"/>
	<path class="st9" d="M662.2,491.6c1.4,0.9,3.4,1.6,5.6,1.6c3.2,0,5.1-1.7,5.1-4.1c0-2.2-1.3-3.6-4.6-4.8c-4-1.4-6.4-3.5-6.4-6.9
		c0-3.8,3.1-6.6,7.8-6.6c2.4,0,4.3,0.6,5.3,1.2l-0.9,2.6c-0.8-0.5-2.4-1.2-4.6-1.2c-3.3,0-4.6,2-4.6,3.6c0,2.3,1.5,3.4,4.8,4.7
		c4.1,1.6,6.2,3.6,6.2,7.1c0,3.7-2.7,7-8.5,7c-2.3,0-4.9-0.7-6.2-1.6L662.2,491.6z"/>
	<path class="st9" d="M696.2,486.5c0,6.4-4.5,9.2-8.7,9.2c-4.7,0-8.4-3.5-8.4-9c0-5.8,3.9-9.2,8.6-9.2
		C692.8,477.6,696.2,481.2,696.2,486.5z M682.4,486.7c0,3.8,2.2,6.7,5.3,6.7c3,0,5.3-2.8,5.3-6.8c0-3-1.5-6.7-5.2-6.7
		C684.1,480,682.4,483.4,682.4,486.7z"/>
	<path class="st9" d="M700.2,469.8h3.2v25.6h-3.2V469.8z"/>
	<path class="st9" d="M721,491.2c0,1.5,0.1,3,0.3,4.2h-2.8l-0.3-2.2H718c-1,1.4-2.8,2.6-5.3,2.6c-3.5,0-5.3-2.5-5.3-5
		c0-4.2,3.7-6.5,10.5-6.5v-0.4c0-1.4-0.4-4-4-4c-1.7,0-3.3,0.5-4.6,1.3l-0.7-2.1c1.4-0.9,3.6-1.5,5.8-1.5c5.3,0,6.6,3.6,6.6,7.1
		V491.2z M717.9,486.5c-3.5-0.1-7.4,0.5-7.4,3.9c0,2.1,1.4,3,3,3c2.3,0,3.8-1.4,4.3-2.9c0.1-0.4,0.1-0.7,0.1-1V486.5z"/>
	<path class="st9" d="M726.1,483.4c0-2.1,0-3.8-0.1-5.4h2.8l0.1,3.5h0.1c0.8-2.3,2.7-3.8,4.9-3.8c0.3,0,0.6,0,0.9,0.1v3
		c-0.3-0.1-0.6-0.1-1.1-0.1c-2.2,0-3.8,1.7-4.2,4c-0.1,0.4-0.1,1-0.1,1.5v9.3h-3.2V483.4z"/>
	<path class="st9" d="M745.6,471.4c1.5-0.3,3.5-0.5,6-0.5c3.1,0,5.4,0.7,6.8,2c1.3,1.2,2.1,2.9,2.1,5.1c0,2.2-0.6,3.9-1.9,5.2
		c-1.7,1.8-4.4,2.7-7.4,2.7c-0.9,0-1.8,0-2.5-0.2v9.7h-3.1V471.4z M748.7,483.1c0.7,0.2,1.5,0.3,2.6,0.3c3.8,0,6.1-1.9,6.1-5.1
		c0-3.2-2.3-4.8-5.7-4.8c-1.4,0-2.4,0.1-3,0.3V483.1z"/>
	<path class="st9" d="M764.4,469.8h3.2v10.9h0.1c0.5-0.9,1.3-1.7,2.3-2.3c0.9-0.5,2.1-0.9,3.2-0.9c2.3,0,6.1,1.4,6.1,7.4v10.4h-3.2
		v-10c0-2.8-1-5.1-4-5.1c-2.1,0-3.6,1.4-4.2,3.1c-0.2,0.5-0.2,0.9-0.2,1.5v10.5h-3.2V469.8z"/>
	<path class="st9" d="M785.1,477.9l3.8,10.3c0.4,1.2,0.9,2.5,1.2,3.6h0.1c0.3-1,0.7-2.4,1.1-3.6l3.5-10.2h3.3l-4.8,12.4
		c-2.3,6-3.8,9-6,10.9c-1.6,1.3-3.1,1.9-3.9,2l-0.8-2.6c0.8-0.3,1.8-0.8,2.8-1.5c0.9-0.7,1.9-1.9,2.7-3.5c0.1-0.3,0.3-0.6,0.3-0.8
		s-0.1-0.4-0.3-0.8l-6.4-16.1H785.1z"/>
	<path class="st9" d="M800.3,492.2c1,0.6,2.6,1.2,4.2,1.2c2.3,0,3.3-1.1,3.3-2.6c0-1.5-0.9-2.3-3.2-3.2c-3.2-1.2-4.6-2.8-4.6-4.9
		c0-2.8,2.3-5.1,6-5.1c1.8,0,3.3,0.5,4.2,1.1l-0.8,2.3c-0.7-0.4-1.9-1-3.6-1c-1.9,0-2.9,1.1-2.9,2.4c0,1.4,1,2.1,3.3,3
		c3,1.1,4.6,2.6,4.6,5.2c0,3.1-2.4,5.3-6.5,5.3c-1.9,0-3.7-0.5-4.9-1.2L800.3,492.2z"/>
	<path class="st9" d="M818.5,473.1c0,1.1-0.8,1.9-2,1.9c-1.2,0-1.9-0.9-1.9-1.9s0.8-2,2-2C817.7,471.1,818.5,471.9,818.5,473.1z
		 M814.9,495.4v-17.4h3.2v17.4H814.9z"/>
	<path class="st9" d="M835.8,494.8c-0.8,0.4-2.7,1-5,1c-5.3,0-8.7-3.6-8.7-8.9c0-5.4,3.7-9.3,9.4-9.3c1.9,0,3.5,0.5,4.4,0.9
		l-0.7,2.4c-0.8-0.4-1.9-0.8-3.7-0.8c-4,0-6.2,3-6.2,6.6c0,4,2.6,6.5,6,6.5c1.8,0,3-0.4,3.9-0.8L835.8,494.8z"/>
	<path class="st9" d="M839.1,492.2c1,0.6,2.6,1.2,4.2,1.2c2.3,0,3.3-1.1,3.3-2.6c0-1.5-0.9-2.3-3.2-3.2c-3.2-1.2-4.6-2.8-4.6-4.9
		c0-2.8,2.3-5.1,6-5.1c1.8,0,3.3,0.5,4.2,1.1l-0.8,2.3c-0.7-0.4-1.9-1-3.6-1c-1.9,0-2.9,1.1-2.9,2.4c0,1.4,1,2.1,3.3,3
		c3,1.1,4.6,2.6,4.6,5.2c0,3.1-2.4,5.3-6.5,5.3c-1.9,0-3.7-0.5-4.9-1.2L839.1,492.2z"/>
</g>
</svg>
