<?xml version="1.0" encoding="utf-8"?>
<!-- Generator: Adobe Illustrator 19.0.1, SVG Export Plug-In . SVG Version: 6.00 Build 0)  -->
<svg version="1.1" id="Layer_1" xmlns="http://www.w3.org/2000/svg" xmlns:xlink="http://www.w3.org/1999/xlink" x="0px" y="0px"
	 viewBox="-1 93.9 608.3 607.1" style="enable-background:new -1 93.9 608.3 607.1;" xml:space="preserve">
<style type="text/css">
	.st0{clip-path:url(#SVGID_2_);fill:#FED20D;}
	.st1{clip-path:url(#SVGID_4_);}
	.st2{fill:#F17A22;}
	.st3{fill:#FED20D;}
</style>
<metadata><?xpacket begin="﻿" id="W5M0MpCehiHzreSzNTczkc9d"?>
<x:xmpmeta xmlns:x="adobe:ns:meta/" x:xmptk="Adobe XMP Core 5.6-c067 79.157747, 2015/03/30-23:40:42        ">
   <rdf:RDF xmlns:rdf="http://www.w3.org/1999/02/22-rdf-syntax-ns#">
      <rdf:Description rdf:about=""
            xmlns:xmp="http://ns.adobe.com/xap/1.0/"
            xmlns:xmpGImg="http://ns.adobe.com/xap/1.0/g/img/"
            xmlns:xmpTPg="http://ns.adobe.com/xap/1.0/t/pg/"
            xmlns:stDim="http://ns.adobe.com/xap/1.0/sType/Dimensions#"
            xmlns:xmpG="http://ns.adobe.com/xap/1.0/g/"
            xmlns:dc="http://purl.org/dc/elements/1.1/"
            xmlns:xmpMM="http://ns.adobe.com/xap/1.0/mm/"
            xmlns:stRef="http://ns.adobe.com/xap/1.0/sType/ResourceRef#"
            xmlns:stEvt="http://ns.adobe.com/xap/1.0/sType/ResourceEvent#">
         <xmp:CreatorTool>Adobe Illustrator CC 2015 (Macintosh)</xmp:CreatorTool>
         <xmp:CreateDate>2015-07-23T00:24:16-04:00</xmp:CreateDate>
         <xmp:MetadataDate>2015-07-23T00:24:16-04:00</xmp:MetadataDate>
         <xmp:ModifyDate>2015-07-23T00:24:16-04:00</xmp:ModifyDate>
         <xmpTPg:MaxPageSize rdf:parseType="Resource">
            <stDim:w>608.325012</stDim:w>
            <stDim:h>607.067017</stDim:h>
            <stDim:unit>Points</stDim:unit>
         </xmpTPg:MaxPageSize>
         <xmpTPg:NPages>1</xmpTPg:NPages>
         <xmpTPg:HasVisibleTransparency>False</xmpTPg:HasVisibleTransparency>
         <xmpTPg:HasVisibleOverprint>False</xmpTPg:HasVisibleOverprint>
         <xmpTPg:PlateNames>
            <rdf:Seq>
               <rdf:li>Cyan</rdf:li>
               <rdf:li>Magenta</rdf:li>
               <rdf:li>Yellow</rdf:li>
               <rdf:li>Black</rdf:li>
            </rdf:Seq>
         </xmpTPg:PlateNames>
         <xmpTPg:SwatchGroups>
            <rdf:Seq>
               <rdf:li rdf:parseType="Resource">
                  <xmpG:groupName>Default Swatch Group</xmpG:groupName>
                  <xmpG:groupType>0</xmpG:groupType>
               </rdf:li>
            </rdf:Seq>
         </xmpTPg:SwatchGroups>
         <dc:format>image/svg+xml</dc:format>
         <xmpMM:DerivedFrom rdf:parseType="Resource">
            <stRef:instanceID>xmp.iid:eb4f6b36-fc35-48bf-b1bb-436f7d1c04ce</stRef:instanceID>
            <stRef:documentID>xmp.did:eb4f6b36-fc35-48bf-b1bb-436f7d1c04ce</stRef:documentID>
            <stRef:originalDocumentID>xmp.did:eb4f6b36-fc35-48bf-b1bb-436f7d1c04ce</stRef:originalDocumentID>
         </xmpMM:DerivedFrom>
         <xmpMM:DocumentID>xmp.did:78f90c5c-4fa6-48a4-9571-f11f5aa1d140</xmpMM:DocumentID>
         <xmpMM:InstanceID>xmp.iid:78f90c5c-4fa6-48a4-9571-f11f5aa1d140</xmpMM:InstanceID>
         <xmpMM:OriginalDocumentID>xmp.did:eb4f6b36-fc35-48bf-b1bb-436f7d1c04ce</xmpMM:OriginalDocumentID>
         <xmpMM:History>
            <rdf:Seq>
               <rdf:li rdf:parseType="Resource">
                  <stEvt:action>saved</stEvt:action>
                  <stEvt:instanceID>xmp.iid:eb4f6b36-fc35-48bf-b1bb-436f7d1c04ce</stEvt:instanceID>
                  <stEvt:when>2015-07-23T00:23:24-04:00</stEvt:when>
                  <stEvt:softwareAgent>Adobe Illustrator CC 2015 (Macintosh)</stEvt:softwareAgent>
                  <stEvt:changed>/</stEvt:changed>
               </rdf:li>
               <rdf:li rdf:parseType="Resource">
                  <stEvt:action>saved</stEvt:action>
                  <stEvt:instanceID>xmp.iid:78f90c5c-4fa6-48a4-9571-f11f5aa1d140</stEvt:instanceID>
                  <stEvt:when>2015-07-23T00:24:16-04:00</stEvt:when>
                  <stEvt:softwareAgent>Adobe Illustrator CC 2015 (Macintosh)</stEvt:softwareAgent>
                  <stEvt:changed>/</stEvt:changed>
               </rdf:li>
            </rdf:Seq>
         </xmpMM:History>
      </rdf:Description>
   </rdf:RDF>
</x:xmpmeta>





















<?xpacket end="w"?>
	</metadata>
<g>
	<g id="Layer_1_1_">
		<g>
			<g>
				<defs>
					<path id="SVGID_1_" d="M453.8,379.6c3.6-15.3,3.5-30.7,1.1-44.9l-5.3-17.8c-7-16.5-21.1-31.1-41.7-43.9l-13-8.2
						c-2.1-1.2-4.3-2.5-6.4-3.7c-2.2,0.1-5.2-2.8-7.7-3.9c-10.2-5.4-20-9.1-29.3-11.4l-15.8-2.6c-18.2-1.6-35.2,2-52,8.5l-20,8.9
						c-14.9,7.5-57.7,40.9-57.7,40.9c-6.8,6.6-27.1,30.2-40.4,56c-12.2,23.9-17.7,50.1-17.9,56.4c0,0,2.5,28.6,3.6,33.3
						c1,2.7,8.3,24.8,12.7,32.6l9.7,14.5c6,7.7,13.3,15.1,22.1,22.2l11,8.1c4.9,3.3,33.7,17.8,40.1,20.2l19.9,6.2
						c26.3,6.4,50.6,5.7,73.7,0.3c2.7-1,5.5-1.8,8.3-2.2c5-1.9,34.7-12.3,34.7-12.3c13.6-5.4,26.9-12.4,38.7-24.5
						c1.1-1.9,2.2-3.8,3.3-5.7c11-17.7-12.6-31.3-30.1-33.2c-14.8-1.6-26.3,5.9-39.8,11c-21.3,8-43.6,11.3-68.9,7.7
						c-37-5.3-71.6-28.7-79.8-60.8c-1-2.7-1.8-5.5-2.2-8.3c-2.9-16-2.5-32.8,7.2-52.1c1.6-4.5,5.8-11.7,8.9-15.4
						c20.1-29.6,47.8-42.5,74.4-49.6c26.7-7.1,57.4-8.4,89.8,7.9c1.3-0.6,3.4,1.8,5.1,2.4c0.9,0.5,1.8,1,2.6,1.5
						c1.3,1.1,4.4,1.8,4.6,3.2c8.9,3.9,8.8,10.3,11.3,15.9c0.9,2.2,1.5,4.5,1.9,6.9c6.8,20.7-5.5,46-23.7,61.4
						c-17.9,15.1-39.3,28.7-61.1,20.4c-1.5,0.1-5.5-2.2-6.2-3.6c-14.4-11-19.4-24.5-16-40.3c12.8,4.1,14.5,21,28,25.6
						c10.9,3.7,20.8-3.4,28.9-14.4c1.1-1.9,2.2-3.8,3.3-5.7c11.4-22.3,2.4-33-15.4-47.5c-2.8-1.6-5.6-3.2-8.4-4.8
						c-35.8-12.6-62.9-14.8-85.1,23.4c-1.9,3.4-3.9,6.7-5.8,10.1c-16.2,24.2-4.6,42.1,7.6,58.9c7.6,10.5,16.8,23.8,30.4,31.6
						c27.9,16,58.6,8.6,80.4,1.9c14-4.3,28.6-10.2,41.9-18.9l13.1-10c4.8-4.2,9.3-9,13.4-14.3c5.5-7.2,9.7-14.6,12.9-22.3
						L453.8,379.6z"/>
				</defs>
				<clipPath id="SVGID_2_">
					<use xlink:href="#SVGID_1_"  style="overflow:visible;"/>
				</clipPath>
				<rect x="141.5" y="238.4" class="st0" width="322.3" height="323"/>
			</g>
		</g>
		<g>
			<g>
				<defs>
					<path id="SVGID_3_" d="M453.8,379.6c3.6-15.3,3.5-30.7,1.1-44.9l-5.3-17.8c-7-16.5-21.1-31.1-41.7-43.9l-13-8.2
						c-2.1-1.2-4.3-2.5-6.4-3.7c-2.2,0.1-5.2-2.8-7.7-3.9c-10.2-5.4-20-9.1-29.3-11.4l-15.8-2.6c-18.2-1.6-35.2,2-52,8.5l-20,8.9
						c-14.9,7.5-57.7,40.9-57.7,40.9c-6.8,6.6-27.1,30.2-40.4,56c-12.2,23.9-17.7,50.1-17.9,56.4c0,0,2.5,28.6,3.6,33.3
						c1,2.7,8.3,24.8,12.7,32.6l9.7,14.5c6,7.7,13.3,15.1,22.1,22.2l11,8.1c4.9,3.3,33.7,17.8,40.1,20.2l19.9,6.2
						c26.3,6.4,50.6,5.7,73.7,0.3c2.7-1,5.5-1.8,8.3-2.2c5-1.9,34.7-12.3,34.7-12.3c13.6-5.4,26.9-12.4,38.7-24.5
						c1.1-1.9,2.2-3.8,3.3-5.7c11-17.7-12.6-31.3-30.1-33.2c-14.8-1.6-26.3,5.9-39.8,11c-21.3,8-43.6,11.3-68.9,7.7
						c-37-5.3-71.6-28.7-79.8-60.8c-1-2.7-1.8-5.5-2.2-8.3c-2.9-16-2.5-32.8,7.2-52.1c1.6-4.5,5.8-11.7,8.9-15.4
						c20.1-29.6,47.8-42.5,74.4-49.6c26.7-7.1,57.4-8.4,89.8,7.9c1.3-0.6,3.4,1.8,5.1,2.4c0.9,0.5,1.8,1,2.6,1.5
						c1.3,1.1,4.4,1.8,4.6,3.2c8.9,3.9,8.8,10.3,11.3,15.9c0.9,2.2,1.5,4.5,1.9,6.9c6.8,20.7-5.5,46-23.7,61.4
						c-17.9,15.1-39.3,28.7-61.1,20.4c-1.5,0.1-5.5-2.2-6.2-3.6c-14.4-11-19.4-24.5-16-40.3c12.8,4.1,14.5,21,28,25.6
						c10.9,3.7,20.8-3.4,28.9-14.4c1.1-1.9,2.2-3.8,3.3-5.7c11.4-22.3,2.4-33-15.4-47.5c-2.8-1.6-5.6-3.2-8.4-4.8
						c-35.8-12.6-62.9-14.8-85.1,23.4c-1.9,3.4-3.9,6.7-5.8,10.1c-16.2,24.2-4.6,42.1,7.6,58.9c7.6,10.5,16.8,23.8,30.4,31.6
						c27.9,16,58.6,8.6,80.4,1.9c14-4.3,28.6-10.2,41.9-18.9l13.1-10c4.8-4.2,9.3-9,13.4-14.3c5.5-7.2,9.7-14.6,12.9-22.3
						L453.8,379.6z"/>
				</defs>
				<clipPath id="SVGID_4_">
					<use xlink:href="#SVGID_3_"  style="overflow:visible;"/>
				</clipPath>
				<g class="st1">
					<g>
						<path class="st2" d="M280.5,241.9c-9.5,3.6-19.1,7.8-28.6,12.3c-2.7,1.3-5.4,2.7-8.2,4.1L302,303L280.5,241.9z"/>
						<path class="st2" d="M168.9,343.4c-5.6,9.1-10.7,18.5-14.9,28l57.9-0.2L168.9,343.4z"/>
						<path class="st2" d="M158.9,471.2c6,10.6,12.8,20.9,20.7,31l35.2-57.6L158.9,471.2z"/>
						<path class="st2" d="M318.1,559.9c13.2-1.4,25.8-3.5,37.9-6.2L326.9,493L318.1,559.9z"/>
						<path class="st2" d="M406.3,458.1c8.7-5.7,17.2-12.1,25.2-19.2l-45.3-32.5L406.3,458.1z"/>
						<path class="st2" d="M454.8,329.8c-0.1-0.8-0.2-1.6-0.4-2.4c-1.5-3.8-2.6-7.7-3.1-11.8c-1.4-5.5-3.2-10.8-5.5-16.1l-47.5,24.8
							L454.8,329.8z"/>
						<path class="st2" d="M408.8,272.4c-1.6-1-3.1-2-4.7-2.9c-3.9-3.1-11.8-5.1-13.2-8.9c-3.8-2.2-7.5-4.3-11.3-6.5l-3.4,62.8
							L408.8,272.4z"/>
						<path class="st2" d="M225.7,284.1c-8.6,7-16.8,14.2-24.5,21.6c-0.4,0.4-0.8,0.8-1.2,1.1l54.3,28.5L225.7,284.1z"/>
						<path class="st2" d="M148.6,401.9c-0.3,10.3,0.3,20.4,1.6,30.4l49.8-22.6L148.6,401.9z"/>
						<path class="st2" d="M214.9,531.6c10.8,6.1,22.1,11.9,34.1,17.4l15.8-64L214.9,531.6z"/>
						<path class="st2" d="M409.8,362.8l44.4,29.2c4-9.6,7.1-19.3,9.3-29L409.8,362.8z"/>
						<path class="st2" d="M360,247.6c-10.5-2.6-20.9-4.3-31-5.2l7.3,54.8L360,247.6z"/>
						<path class="st2" d="M350.7,471.3c9.3-1.6,18.6-3.8,27.8-6.8l-25.8-43.3L350.7,471.3z"/>
						<path class="st2" d="M260.2,444.2c8.6,8.8,17.8,17.1,27.8,24.7l27.3-59.5L260.2,444.2z"/>
					</g>
				</g>
			</g>
		</g>
	</g>
	<g id="Layer_2">
		<g>
			<path class="st3" d="M563.6,364.9c18-1.9,44.5-6.9,43.7,12.2c0,2.2,0,4.4,0,6.6c-1.3,12.5-14.5,14.1-25.9,17.3
				c-21.7,6-47.7,11.6-71.1,13.2c-1.7,0-3.4,0-5.1,0c-10.4-2.2-27.6-7.7-26.9-19.8c0.4-8.1,12.7-13.1,21.8-16.3
				C519.5,371.3,541.7,367.1,563.6,364.9z"/>
			<path class="st3" d="M583.2,540.1c5.9,6.8,1.2,26.6-7.1,28.4c-5.3,1.2-12.5-2.5-16.8-4.6c-25.1-11.9-44.6-23.1-68.5-38.1
				c-7.6-4.8-20.9-11-22.3-19.8c-1.7-10.3,5.5-19.7,14.7-20.8c10-1.2,23.3,3.8,31,7.6c9.1,4.6,16.7,10,23.4,14.7
				c17.1,12.1,31.1,21.3,44.7,31.5C582.7,539.4,582.8,539.6,583.2,540.1z"/>
			<path class="st3" d="M526.1,204.8c9.9-0.1,19.7,9.3,18.3,19.8c-0.8,5.9-7.7,11.6-13.2,16.8c-16.6,15.5-37.1,33.4-61.4,38.1
				c-2,0-4.1,0-6.1,0c-7.8-1.7-14.8-4.8-15.7-12.2c-1.1-9.1,9.6-17.2,14.2-21.3c12.7-11.4,26.5-19.4,41.1-28.9
				C509.8,212.7,517.8,204.8,526.1,204.8z"/>
			<path class="st3" d="M470.2,644.5c2.4,5.3,5.7,11.7,5.6,16.2c-0.3,9-10,17.3-19.8,16.8c-8-0.4-10.6-5.5-16.2-10.2
				c-1.8-2.2-3.9-4.3-6.1-6.1c-20.4-21.9-36.4-48.3-45.2-81.7c0-2.2,0-4.4,0-6.6c0.4-6.7,7.8-15.1,15.2-16.2
				c12.9-1.9,22.3,8.1,28.4,15.7C448.2,592.5,459,619.4,470.2,644.5z"/>
			<path class="st3" d="M356,93.9c12.2,2.4,18.3,10.8,17.3,26.4c-1.2,0.7-0.2,3.5-0.5,5.1c-1.9,23.5-5,58.7-14.2,78.7
				c-3.4,7.5-10.1,17.3-21.8,15.2c-9.7-1.7-13-12-13.7-23.9c0-4.9,0-9.8,0-14.7c0.2-15.6,3-35.8,7.1-50.8c4.1-15,8.5-31.1,21.3-36.1
				C352.9,93.9,354.4,93.9,356,93.9z"/>
			<path class="st3" d="M332.1,640.6c-1.2,1.2-0.2,4.6-0.5,6.6c-2.3,22.2-3.7,45.4-19.8,53.8c-1.5,0-3,0-4.6,0
				c-12.8-6.9-13.9-25.3-15.7-43.2c-0.3-2.7,0.7-6.8-0.5-8.6c0-1.4,0-2.7,0-4.1c1.2-2.5,0.2-7.3,0.5-10.7c0.7-11.7,1.2-22,3.6-33.5
				c1.7-8.3,4.9-23.1,13.2-23.9c10.9-1.1,17.1,14.1,19.8,23.9C331.6,613.6,332,626.1,332.1,640.6z"/>
			<path class="st3" d="M227,573c0,3.1,0,6.1,0,9.1c-4.7,28-19,57.6-37.6,77.2c-5.2,5.5-14.6,16.5-24.9,12.2
				c-3.5-1.5-4.6-5.8-5.6-10.7c0-2,0-4.1,0-6.1c5-34,19-58.8,36.1-80.7c2.4-2,4.6-4.2,6.6-6.6C207.9,559.1,227.4,558,227,573z"/>
			<path class="st3" d="M228.5,211.4c2.3,9.5,7.2,24.7-4.6,26.9c-1.7,0-3.4,0-5.1,0c-6.7-0.6-9.5-5-13.7-8.1
				c-2.3-2.8-4.9-5.3-7.6-7.6c-20.7-19-44.2-64-24.4-101.6c10.4,1.5,16.5,11.1,22.3,19.3C209.7,160.2,221.6,183.1,228.5,211.4z"/>
			<path class="st3" d="M159.2,297.8c2.1,9.8-4.3,16.1-12.7,16.8c-15.7,1.3-34-9.4-44.7-15.7c-13.6-8.1-25-16.5-35-25.4
				c-1.8-2.2-3.9-4.3-6.1-6.1c-5.6-8.1-15.5-14.6-13.7-28.4c12.5-2.3,24.5,2.7,35,6.6c20.6,7.6,39.2,16.7,56.9,29.5
				C146.9,280.7,157,287.9,159.2,297.8z"/>
			<path class="st3" d="M136.1,503.5c1.6,8.1-5.7,17-10.2,21.8c-10.2,11-23.5,19.4-37.1,25.9c-8,3.9-36.1,12.8-38.1-1.5
				c-1.2-8.4,6.2-11.7,9.1-17.3c1.9-1.5,3.6-3.2,5.1-5.1c9.2-7.3,18-14.8,30-21.3C100.6,502.9,132.8,487.3,136.1,503.5z"/>
			<path class="st3" d="M122.4,393.8c1.1,18.9-32,21.4-49.8,22.8c-6.1,0-12.2,0-18.3,0C31.7,414.3,8,412.9-1,396.8
				c0-1.2,0-2.4,0-3.6c6.2-16.9,27.4-19,48.2-21.3c2.1-0.3,5.4,0.7,6.6-0.5c2.5,0,5.1,0,7.6,0c1.4,1.2,4.9,0.2,7.1,0.5
				c11.8,1,22.2,1.6,33,5.1C109.7,379.6,121.8,384.6,122.4,393.8z"/>
		</g>
		<g>
			<g>
				<path class="st3" d="M358.7,389.1c4.6-0.3,7.9-1.2,12.5,0.9c2.1,1,4.3,1,6.6,0.7c4.9-0.5,8.5-3.3,12.3-6.2
					c1.5-1.1-1.4-1.3-1.9-1.2c-1.9,0.2-3.9,0.8-5.5,1.9c-1.9,1.4-2.5,2.6-5.3,1.3c-1.3-0.6-2.7-1.3-4.2-1.4
					c-3.7-0.3-7.2,0.6-10.9,0.8C360.3,386.1,353.3,389.5,358.7,389.1L358.7,389.1z"/>
			</g>
		</g>
		<g>
			<g>
				<path class="st3" d="M375.7,390.3c2.6,3.3,6.3,5.5,10.5,5.3c1.8-0.1,4.1-0.7,5.5-1.9c1.4-1.3-1.3-1.3-1.9-1.3
					c1.1-0.1-0.3-0.2-0.6-0.3c-0.7-0.3-1.4-0.7-2-1.1c-1.2-0.8-2.4-1.7-3.3-2.9c-0.9-1.1-3.3-0.4-4.4-0.1
					C379.2,388,375.1,389.4,375.7,390.3L375.7,390.3z"/>
			</g>
		</g>
	</g>
</g>
</svg>
